<svg height="512" viewBox="0 0 64 64" width="512" xmlns="http://www.w3.org/2000/svg"><g id="wallet-money-business-finance"><path d="m11 17.946v-14.946h34v53h-34v-34.827z" fill="#64c37d"/><path d="m35 7h-14a6 6 0 0 1 -6 6v38a6 6 0 0 1 6 6h14a6 6 0 0 1 6-6v-38a6 6 0 0 1 -6-6z" fill="#a2dcb8"/><circle cx="28" cy="32" fill="#f8d251" r="9"/><path d="m5 27h56a0 0 0 0 1 0 0v34a0 0 0 0 1 0 0h-56a2 2 0 0 1 -2-2v-30a2 2 0 0 1 2-2z" fill="#7e543b"/><path d="" fill="none"/><path d="" fill="none"/><path d="m6.296 32h53.704v24h-53.704z" fill="#cc8355"/><path d="m48 39h13v10h-13z" fill="#7e543b"/><circle cx="53" cy="44" fill="#e9e9ea" r="2"/><circle cx="48" cy="22" fill="#f8d251" r="9"/><path d="m51 20v-1a1 1 0 0 0 -1-1h-4a1 1 0 0 0 -1 1v1a1 1 0 0 0 1 1h4a3.009 3.009 0 0 1 3 3v1a3.009 3.009 0 0 1 -3 3h-1v1h-2v-1h-1a3.009 3.009 0 0 1 -3-3h2a1 1 0 0 0 1 1h4a1 1 0 0 0 1-1v-1a1 1 0 0 0 -1-1h-4a3.009 3.009 0 0 1 -3-3v-1a3.009 3.009 0 0 1 3-3h1v-1h2v1h1a3.009 3.009 0 0 1 3 3v1z" fill="#eb9a43"/></g></svg>