<svg height="512" viewBox="0 0 64 64" width="512" xmlns="http://www.w3.org/2000/svg"><path d="m34 18v-4a2.006 2.006 0 0 1 2-2 2.015 2.015 0 0 1 2 2v4z" fill="#d69f44"/><path d="m45 41-3-4v-2h-12v2l-3 4v2h18z" fill="#d69f44"/><path d="m51.34 54h-30.68v-4.96l1.34-8.04h28l1.34 8.04z" fill="#d18b29"/><rect fill="#d69f44" height="4" rx="2" width="38" x="17" y="33"/><path d="m19 33a17 17 0 0 1 34 0z" fill="#ecaf4a"/><path d="m24.923 28.377-1.846-.772a13.972 13.972 0 0 1 12.923-8.605v2a11.975 11.975 0 0 0 -11.077 7.377z" fill="#f9c468"/><g fill="#ffc119"><path d="m35 5h2v4h-2z"/><path d="m27 13h4v2h-4z"/><path d="m41 13h4v2h-4z"/><path d="m38.586 8.414h4v2h-4z" transform="matrix(.707 -.707 .707 .707 5.231 31.456)"/><path d="m30.414 7.414h2v4h-2z" transform="matrix(.707 -.707 .707 .707 2.546 24.973)"/></g><path d="m17 56.121 8.843 3.672a16.339 16.339 0 0 0 11.992.132l15.448-5.89a2.7 2.7 0 0 0 1.527-3.516 2.63 2.63 0 0 0 -3.472-1.484l-8.361 3.55a5.169 5.169 0 0 1 -1.444.355 2.5 2.5 0 0 0 -.533-4.94h-7.757a6.061 6.061 0 0 1 -2.708-.639 22.355 22.355 0 0 0 -10-2.361h-3.535z" fill="#f2c09a"/><path d="m29 53a1 1 0 0 1 1-1h11a1 1 0 0 1 0 2h-11a1 1 0 0 1 -1-1z" fill="#e9937c"/><path d="m3 44h14v14h-14z" fill="#0093ba"/><path d="m12 53h2v2h-2z" fill="#ccdce5"/><path d="m19 45h-2v11.121l2 .83z" fill="#e9937c"/><path d="m43.5 39-1.5-2h-12l-1.5 2z" fill="#d18b29"/></svg>