<svg width="223" height="225" viewBox="0 0 223 225" fill="none" xmlns="http://www.w3.org/2000/svg">
<path fill-rule="evenodd" clip-rule="evenodd" d="M90.9569 110.497L51.4463 140.473L82.2207 135.179C73.88 158.609 65.9707 180.68 60.0387 197.063C53.6394 214.698 38.432 225 19.5935 225C9.31139 225 0 225 0 225L71.3274 25.1471C76.2528 11.2679 91.1007 0 107.638 0H130C130 0.0357711 110.694 54.9444 90.9569 110.497Z" fill="url(#paint0_linear)"/>
<path d="M120.213 144.283C141.831 144.283 164.235 138.185 182.172 125.666C200.753 112.896 214.045 93.0598 220.263 71.3224C223.228 61.2787 223.943 50.5176 221.62 40.2587C220.87 36.7075 219.441 33.3357 218.297 29.8563C215.474 24.0453 211.508 18.7723 206.649 14.5396C201.182 9.05149 194.107 5.42859 186.853 3.02528C179.171 0.478484 170.667 -0.0954408 162.627 0.0121702C141.76 0.0121702 145.44 0.0121702 145.44 0.0121702L102.347 121.792L51.7509 140.516L50 145C50 145 108.422 145 120.213 144.283Z" fill="#2BC27D"/>
<defs>
<linearGradient id="paint0_linear" x1="-23.6873" y1="210.356" x2="174.684" y2="-11.0677" gradientUnits="userSpaceOnUse">
<stop offset="0.0820277" stop-color="#00BAFF"/>
<stop offset="0.3389" stop-color="#1050A9"/>
<stop offset="0.5445" stop-color="#1D0068"/>
</linearGradient>
</defs>
</svg>
