<svg width="1278" height="400" viewBox="0 0 1278 400" fill="none" xmlns="http://www.w3.org/2000/svg">
<g clip-path="url(#clip0)">
<path fill-rule="evenodd" clip-rule="evenodd" d="M1277.62 101.526L1196.46 324.094H1142.65L1223.24 101.526C1224.57 97.7114 1227.56 95.1685 1230.68 95.1685H1273.1C1276.92 95.1685 1278.95 97.7114 1277.62 101.526ZM1116.76 324.031H1062.95L1143.54 101.462C1144.88 97.6478 1147.87 95.1049 1150.98 95.1049H1193.41C1197.16 95.1049 1199.26 97.6478 1197.92 101.462L1116.76 324.031ZM1036.24 320.915C1035.73 322.441 1034.71 323.586 1033.38 324.031H985.866C984.785 323.586 984.276 322.441 984.785 320.915L988.283 310.807H987.965C981.795 316.402 974.29 320.915 965.576 324.031H919.972C907.633 317.8 900.763 305.086 904.007 287.285C911.449 246.599 943.505 224.73 992.29 224.73H1017.35C1018.69 224.73 1019.83 224.031 1020.4 222.695L1022.44 216.974C1027.02 204.514 1023.71 199.11 998.269 199.11C983.894 199.11 969.774 203.179 960.806 208.519C958.643 209.536 957.371 209.218 957.053 207.184L950.756 177.559C950.438 175.524 951.456 173.872 953.682 172.537C971.237 162.428 996.424 156.389 1021.1 156.389C1070.21 156.389 1090.18 171.519 1073.51 217.292L1036.24 320.915ZM1005.27 258.042H986.247C969.201 258.042 959.979 264.781 957.689 277.241C956.353 284.615 960.806 289.383 971.873 289.383C988.219 289.383 998.714 283.344 1002.98 270.884L1006.6 260.14C1007.11 258.678 1006.6 258.042 1005.27 258.042ZM1253.26 277.622C1266.42 277.622 1276.47 287.921 1276.47 301.017C1276.47 314.24 1266.36 324.539 1253.26 324.539C1240.09 324.539 1230.04 314.24 1230.04 301.017C1230.04 287.921 1240.16 277.622 1253.26 277.622ZM1253.26 319.771C1263.63 319.771 1271.51 311.825 1271.51 301.017C1271.51 290.337 1263.63 282.39 1253.26 282.39C1242.89 282.39 1235 290.337 1235 301.017C1235 311.825 1242.95 319.771 1253.26 319.771ZM1244.48 287.921H1254.59C1260.57 287.921 1264.07 290.718 1264.07 295.868C1264.07 299.555 1262.23 301.971 1259.17 303.242L1264.26 313.032C1264.52 313.541 1264.26 313.859 1263.63 313.859H1259.24C1258.73 313.859 1258.41 313.605 1258.16 313.032L1253.39 303.942H1249.89C1249.51 303.942 1249.38 304.196 1249.38 304.45V313.032C1249.38 313.668 1249 313.859 1248.55 313.859H1244.42C1243.91 313.859 1243.59 313.605 1243.59 313.032V288.748C1243.65 288.175 1244.04 287.921 1244.48 287.921ZM1249.51 298.347C1249.51 298.729 1249.63 298.856 1250.01 298.856H1254.66C1257.2 298.856 1258.54 297.966 1258.54 295.931C1258.54 293.961 1257.2 293.007 1254.66 293.007H1250.01C1249.63 293.007 1249.51 293.134 1249.51 293.516V298.347Z" fill="white"/>
<path d="M431.237 320.598C430.537 322.632 431.618 323.967 433.59 323.967H463.993C466.028 323.967 467.618 322.632 468.318 320.598L498.53 238.144C498.784 236.809 499.929 236.109 501.265 236.109H538.283C587.067 236.109 628.601 207.184 639.223 150.985C645.647 116.974 627.011 95.1049 588.912 95.1049H516.466C514.431 95.1049 512.841 96.4399 512.141 98.4743L431.237 320.598ZM513.35 202.162C512.014 202.162 511.442 201.462 512.078 200.127L537.519 130.833C538.092 129.498 538.919 128.799 540.254 128.799H574.601C594.636 128.799 603.859 140.242 600.615 157.406C595.399 184.997 573.138 202.162 547.76 202.162H513.35Z" fill="white"/>
<path d="M717.647 323.967C719.682 323.967 721.272 322.632 721.972 320.598L760.707 214.24C775.209 174.507 762.615 158.042 716.82 158.042C694.431 158.042 671.852 164.463 656.332 173.872C654.806 174.889 653.788 176.542 654.17 178.258L658.177 199.428C658.558 201.081 660.148 201.462 662.375 200.127C671.852 194.088 684.89 188.684 702.318 188.684C728.714 188.684 733.548 196.758 726.17 216.275L723.117 225.366C722.544 226.701 721.399 227.4 720.064 227.4H688.643C643.548 227.4 613.336 247.616 606.148 285.633C601.187 311.888 617.279 327.718 642.339 327.718C664.728 327.718 681.965 319.644 693.159 308.201H693.477L689.152 320.661C688.452 322.696 689.534 324.031 691.187 324.031H717.647V323.967ZM661.929 298.729C646.219 298.729 639.795 291.99 641.894 280.865C645.138 263.7 657.286 254.291 684.636 254.291H710.396C711.731 254.291 712.304 254.991 711.668 256.326L706.707 270.121C700.155 288.938 684 298.729 661.929 298.729Z" fill="white"/>
<path d="M744.042 384.552C769.421 384.552 786.339 372.791 813.625 334.393L935.428 165.162C936.827 163.128 935.746 161.793 933.71 161.793H902.989C900.954 161.793 899.428 162.81 898.028 165.162L824.693 272.473H823.993L827.873 165.162C828 162.81 827.173 161.793 825.138 161.793H794.735C792.7 161.793 791.491 163.128 791.428 165.162L792.318 318.245L782.714 332.041C772.219 346.853 764.141 352.575 751.802 352.575H745.76C743.724 352.575 741.816 353.91 741.117 355.944L732.021 381.182C731.004 383.217 732.085 384.552 734.057 384.552H744.042Z" fill="white"/>
<path fill-rule="evenodd" clip-rule="evenodd" d="M160.983 196.441L91.0821 249.715L145.527 240.306C130.771 281.946 116.778 321.171 106.284 350.287C94.962 381.629 68.0574 399.937 34.7288 399.937C16.538 399.937 0.0644531 399.937 0.0644531 399.937L126.255 44.7563C134.969 20.09 161.238 0.0645752 190.496 0.0645752H230.057C230.057 0.128148 195.902 97.7124 160.983 196.441Z" fill="white"/>
<path d="M212.947 256.325C251.427 256.325 291.307 245.518 323.237 223.331C356.311 200.699 379.972 165.544 391.039 127.018C396.318 109.218 397.59 90.1462 393.456 71.9644C392.12 65.6707 389.576 59.6948 387.541 53.5283C382.516 43.2295 375.456 33.8843 366.806 26.3827C357.074 16.656 344.48 10.2352 331.569 5.97582C317.894 1.46215 302.756 0.444987 288.445 0.635705C251.3 0.635705 257.851 0.635705 257.851 0.635705L181.145 216.465L91.0812 249.65L87.9646 257.597C87.9646 257.597 191.958 257.597 212.947 256.325Z" fill="white"/>
</g>
<defs>
<clipPath id="clip0">
<rect width="1278" height="400" fill="white"/>
</clipPath>
</defs>
</svg>
