<?xml version="1.0" encoding="utf-8"?>
<!-- Generator: Adobe Illustrator 22.0.1, SVG Export Plug-In . SVG Version: 6.00 Build 0)  -->
<svg version="1.1" id="Layer_1" xmlns="http://www.w3.org/2000/svg" xmlns:xlink="http://www.w3.org/1999/xlink" x="0px" y="0px"
	 viewBox="0 0 2009.3 629.2" style="enable-background:new 0 0 2009.3 629.2;" xml:space="preserve">
<style type="text/css">
	.st0{fill-rule:evenodd;clip-rule:evenodd;fill:#2BC27D;}
	.st1{fill:#1D0068;}
	.st2{fill-rule:evenodd;clip-rule:evenodd;fill:url(#SVGID_1_);}
	.st3{fill:#2BC27D;}
</style>
<g>
	<path class="st0" d="M2008.7,159.7l-127.6,350.1h-84.6l126.7-350.1c2.1-6,6.8-10,11.7-10h66.7
		C2007.6,149.7,2010.8,153.7,2008.7,159.7z M1755.8,509.7h-84.6l126.7-350.1c2.1-6,6.8-10,11.7-10h66.7c5.9,0,9.2,4,7.1,10
		L1755.8,509.7z M1629.2,504.8c-0.8,2.4-2.4,4.2-4.5,4.9h-74.7c-1.7-0.7-2.5-2.5-1.7-4.9l5.5-15.9h-0.5
		c-9.7,8.8-21.5,15.9-35.2,20.8h-71.7c-19.4-9.8-30.2-29.8-25.1-57.8c11.7-64,62.1-98.4,138.8-98.4h39.4c2.1,0,3.9-1.1,4.8-3.2
		l3.2-9c7.2-19.6,2-28.1-38-28.1c-22.6,0-44.8,6.4-58.9,14.8c-3.4,1.6-5.4,1.1-5.9-2.1l-9.9-46.6c-0.5-3.2,1.1-5.8,4.6-7.9
		c27.6-15.9,67.2-25.4,106-25.4c77.2,0,108.6,23.8,82.4,95.8L1629.2,504.8z M1580.5,405.9h-29.9c-26.8,0-41.3,10.6-44.9,30.2
		c-2.1,11.6,4.9,19.1,22.3,19.1c25.7,0,42.2-9.5,48.9-29.1l5.7-16.9C1583.4,406.9,1582.6,405.9,1580.5,405.9z M1970.4,436.7
		c20.7,0,36.5,16.2,36.5,36.8c0,20.8-15.9,37-36.5,37c-20.7,0-36.5-16.2-36.5-37C1933.9,452.9,1949.8,436.7,1970.4,436.7z
		 M1970.4,503c16.3,0,28.7-12.5,28.7-29.5c0-16.8-12.4-29.3-28.7-29.3c-16.3,0-28.7,12.5-28.7,29.3
		C1941.7,490.5,1954.2,503,1970.4,503z M1956.6,452.9h15.9c9.4,0,14.9,4.4,14.9,12.5c0,5.8-2.9,9.6-7.7,11.6l8,15.4
		c0.4,0.8,0,1.3-1,1.3h-6.9c-0.8,0-1.3-0.4-1.7-1.3l-7.5-14.3h-5.5c-0.6,0-0.8,0.4-0.8,0.8v13.5c0,1-0.6,1.3-1.3,1.3h-6.5
		c-0.8,0-1.3-0.4-1.3-1.3v-38.2C1955.3,453.3,1955.9,452.9,1956.6,452.9z M1964.5,469.3c0,0.6,0.2,0.8,0.8,0.8h7.3
		c4,0,6.1-1.4,6.1-4.6c0-3.1-2.1-4.6-6.1-4.6h-7.3c-0.6,0-0.8,0.2-0.8,0.8V469.3z"/>
	<g>
		<g>
			<path class="st1" d="M678,504.3c-1.1,3.2,0.6,5.3,3.7,5.3h47.8c3.2,0,5.7-2.1,6.8-5.3l47.5-129.7c0.4-2.1,2.2-3.2,4.3-3.2h58.2
				c76.7,0,142-45.5,158.7-133.9c10.1-53.5-19.2-87.9-79.1-87.9H812c-3.2,0-5.7,2.1-6.8,5.3L678,504.3z M807.1,318
				c-2.1,0-3-1.1-2-3.2l40-109c0.9-2.1,2.2-3.2,4.3-3.2h54c31.5,0,46,18,40.9,45c-8.2,43.4-43.2,70.4-83.1,70.4H807.1z"/>
			<path class="st1" d="M1128.3,509.6c3.2,0,5.7-2.1,6.8-5.3L1196,337c22.8-62.5,3-88.4-69-88.4c-35.2,0-70.7,10.1-95.1,24.9
				c-2.4,1.6-4,4.2-3.4,6.9l6.3,33.3c0.6,2.6,3.1,3.2,6.6,1.1c14.9-9.5,35.4-18,62.8-18c41.5,0,49.1,12.7,37.5,43.4l-4.8,14.3
				c-0.9,2.1-2.7,3.2-4.8,3.2h-49.4c-70.9,0-118.4,31.8-129.7,91.6c-7.8,41.3,17.5,66.2,56.9,66.2c35.2,0,62.3-12.7,79.9-30.7h0.5
				l-6.8,19.6c-1.1,3.2,0.6,5.3,3.2,5.3H1128.3z M1040.7,469.9c-24.7,0-34.8-10.6-31.5-28.1c5.1-27,24.2-41.8,67.2-41.8h40.5
				c2.1,0,3,1.1,2,3.2l-7.8,21.7C1100.8,454.5,1075.4,469.9,1040.7,469.9z"/>
			<path class="st1" d="M1169.8,604.9c39.9,0,66.5-18.5,109.4-78.9l191.5-266.2c2.2-3.2,0.5-5.3-2.7-5.3h-48.3
				c-3.2,0-5.6,1.6-7.8,5.3l-115.3,168.8h-1.1l6.1-168.8c0.2-3.7-1.1-5.3-4.3-5.3h-47.8c-3.2,0-5.1,2.1-5.2,5.3l1.4,240.8
				l-15.1,21.7c-16.5,23.3-29.2,32.3-48.6,32.3h-9.5c-3.2,0-6.2,2.1-7.3,5.3l-14.3,39.7c-1.6,3.2,0.1,5.3,3.2,5.3H1169.8z"/>
		</g>
	</g>
</g>
<linearGradient id="SVGID_1_" gradientUnits="userSpaceOnUse" x1="-65.7871" y1="588.1612" x2="489.0683" y2="-28.0681">
	<stop  offset="8.202770e-02" style="stop-color:#00BAFF"/>
	<stop  offset="0.3389" style="stop-color:#1050A9"/>
	<stop  offset="0.5445" style="stop-color:#1D0068"/>
</linearGradient>
<path class="st2" d="M253.1,309l-109.9,83.8l85.6-14.8c-23.2,65.5-45.2,127.2-61.7,173c-17.8,49.3-60.1,78.1-112.5,78.1
	c-28.6,0-54.5,0-54.5,0L198.5,70.4c13.7-38.8,55-70.3,101-70.3h62.2C361.7,0.2,308,153.7,253.1,309z"/>
<path class="st3" d="M334.8,403.2c60.5,0,123.2-17,173.4-51.9c52-35.6,89.2-90.9,106.6-151.5c8.3-28,10.3-58,3.8-86.6
	c-2.1-9.9-6.1-19.3-9.3-29c-7.9-16.2-19-30.9-32.6-42.7c-15.3-15.3-35.1-25.4-55.4-32.1c-21.5-7.1-45.3-8.7-67.8-8.4
	c-58.4,0-48.1,0-48.1,0L284.8,340.5l-141.6,52.2l-4.9,12.5C138.3,405.2,301.8,405.2,334.8,403.2z"/>
</svg>
