<svg width="32" height="32" viewBox="0 0 32 32" fill="none" xmlns="http://www.w3.org/2000/svg">
<path d="M13.6666 27C16.7433 27 19.5716 25.9416 21.8283 24.1866L29.155 31.5133L31.5116 29.1566L24.185 21.83C25.9416 19.5716 27 16.7433 27 13.6666C27 6.31498 21.0183 0.333313 13.6666 0.333313C6.31498 0.333313 0.333313 6.31498 0.333313 13.6666C0.333313 21.0183 6.31498 27 13.6666 27ZM13.6666 3.66665C19.1816 3.66665 23.6666 8.15165 23.6666 13.6666C23.6666 19.1816 19.1816 23.6666 13.6666 23.6666C8.15165 23.6666 3.66665 19.1816 3.66665 13.6666C3.66665 8.15165 8.15165 3.66665 13.6666 3.66665Z" fill="#1C006A"/>
</svg>
